<svg id="earn_icon" data-name="earn icon" xmlns="http://www.w3.org/2000/svg" viewBox="0 0 317.0365 279.8802"><defs><style>.cls-1,.cls-2{fill:none;stroke-linecap:round;stroke-linejoin:round;stroke-width:5.9709px;fill-rule:evenodd;}.cls-1{stroke:#282828;}.cls-2{stroke:#ae8d4e;}</style></defs><title>earn-icon</title><path class="cls-1" d="M249.0806,217.6348s-4.7232-32.6564-8.7861-45.9519c-2.5574-8.3687-14.8165-38.5128-20.351-49.5817s-7.8525-15.5848-16.1043-12.6724c-7.1751,2.5324-5.0531,9.6769-5.0531,9.6769-5.5345-8.3017-7.2429-16.304-18.1605-11.7872-9.2195,3.8143-3.9773,17.3216-3.9773,17.3216s-8.3017-19.3706-19.3706-13.8361-5.5345,19.3706-5.5345,19.3706-26.6345-47.3888-32.169-55.69-11.4148-11.4148-16.9492-8.6475c-5.2505,2.6252-6.9181,8.3016-4.1509,16.6033s42.2,97.5447,42.2,97.5447c-35.9739-22.1378-49.81,2.7672-47.0428,5.5345s19.8858,6.2124,30.8595,17.6081c9.5973,9.9665,24.243,24.5485,38.3211,29.4347,16.1253,5.5967,25.2563,13.1164,28.0235,15.8836C190.8356,248.4455,230.202,240.0641,249.0806,217.6348Z"/><path class="cls-2" d="M83.89,122.5443a56.5209,56.5209,0,1,1,74.9839-43.3215"/><path class="cls-2" d="M90.1508,98.1473a31.5484,31.5484,0,1,1,44.5478-26.7719"/><path class="cls-1" d="M179.3135,251.94s54.2546-10.2548,75.18-40.6174l11.87,19.4891s-30.4469,38.0557-73.7945,36.1048Z"/></svg>