<svg id="join_icon" data-name="join icon" xmlns="http://www.w3.org/2000/svg" viewBox="0 0 317.0365 279.8802"><defs><style>.cls-1,.cls-2{fill:none;}.cls-1,.cls-2,.cls-3{stroke:#282828;stroke-width:5.9709px;}.cls-1{stroke-miterlimit:10;}.cls-2,.cls-3{stroke-linecap:round;stroke-linejoin:round;}.cls-3,.cls-4{fill:#282828;}.cls-5{fill:#ae8d4e;}</style></defs><title>join-icon</title><path class="cls-1" d="M60.909,94.6738v-65.42A12.0129,12.0129,0,0,1,72.8866,17.2762H159.565a12.013,12.013,0,0,1,11.9777,11.9777V66.6854"/><path class="cls-1" d="M171.5427,89.8225V211.3182a12.013,12.013,0,0,1-11.9777,11.9777H72.8866A12.0129,12.0129,0,0,1,60.909,211.3182v-13.274"/><path class="cls-2" d="M180.9091,124.7768s-4.4782-11.9417-3.2342-24.1322a43.5587,43.5587,0,0,1-8.5831-22.3907c-1.12-13.4344,8.9562-22.0175,13.4344-22.0175s8.5831,5.2245,13.0612,17.9126,9.7027,11.5685,14.554,26.1225a270.1326,270.1326,0,0,1,11.9417,54.484c2.239,20.5248,14.9271,19.7784,14.9271,19.7784"/><path class="cls-2" d="M133.64,223.42s30.2275,15.3,48.5132,11.9417c11.2592-2.068,13.4344-4.105,30.9738,3.7318"/><path class="cls-2" d="M62.736,93.9274S80.32,96.2655,77.29,108.1082c-4.1049,16.0467-24.2566,9.7026-32.84,9.33,0,0,35.5261,1.0584,32.4666,16.793-2.6123,13.4344-29.4811,11.9417-37.691,11.1953,0,0,37.8615-1.2932,36.1982,16.1711-.9951,10.449-29.481,12.19-32.4665,10.6978,0,0,28.9835-.7464,28.9835,12.19,0,8.4193-11.6929,12.9369-21.3955,11.4442s-18.7833-13.5588-7.588-24.0078c0,0-19.4052-10.0758-3.7317-26.4957,0,0-15.6735-19.4052,4.4781-28.3615C43.7039,117.0645,32.1354,90.5688,62.736,93.9274Z"/><line class="cls-1" x1="60.8701" y1="48.0265" x2="172.823" y2="48.0265"/><line class="cls-1" x1="69.8264" y1="190.9538" x2="172.823" y2="190.9538"/><line class="cls-2" x1="110.876" y1="33.8457" x2="136.2521" y2="33.8457"/><line class="cls-2" x1="98.1879" y1="33.8457" x2="100.0538" y2="33.8457"/><path class="cls-3" d="M112.9241,207.0471a3.3037,3.3037,0,1,0,3.3036-3.3037A3.3072,3.3072,0,0,0,112.9241,207.0471Z"/><path class="cls-2" d="M241.1152,164.8313s-13.0613,66.7989-30.2275,85.4578l31.72,12.3149s23.8829-25.252,37.3175-85.2092Z"/><path class="cls-4" d="M234.246,247.1872a5.0117,5.0117,0,1,0-3.1365-6.3534A4.9951,4.9951,0,0,0,234.246,247.1872Z"/><path class="cls-5" d="M139.7361,96.7874v46.4h-46.4v-46.4h46.4m5.9708-5.9708H87.3657v58.3412h58.3412V90.8166Z"/></svg>