<?xml version="1.0" encoding="UTF-8"?>
<svg width="97px" height="88px" viewBox="0 0 97 88" version="1.1" xmlns="http://www.w3.org/2000/svg" xmlns:xlink="http://www.w3.org/1999/xlink">
    <title>PTS Icon</title>
    <defs>
        <polygon id="path-1" points="0 0.030627027 17.6965463 0.030627027 17.6965463 2.38197838 0 2.38197838"></polygon>
    </defs>
    <g id="Page-1" stroke="none" stroke-width="1" fill="none" fill-rule="evenodd">
        <g id="PTS-Icon" transform="translate(0.000000, 1.000000)">
            <line x1="9" y1="52" x2="9" y2="35" id="Stroke-1" stroke="#AD8C4D" stroke-width="1.865"></line>
            <g id="Group-19">
                <g id="Group-4" transform="translate(0.000000, 41.972973)">
                    <mask id="mask-2" fill="white">
                        <use xlink:href="#path-1"></use>
                    </mask>
                    <g id="Clip-3"></g>
                    <line x1="17.6965463" y1="1.2063027" x2="-0.000234146342" y2="1.2063027" id="Stroke-2" stroke="#AD8C4D" stroke-width="1.865" mask="url(#mask-2)"></line>
                </g>
                <polyline id="Stroke-5" stroke="#282727" stroke-width="1.865" points="8.84745366 23.8838514 8.84745366 0.377391892 95.7930146 0.377391892 95.7930146 85.9830405 8.84745366 85.9830405 8.84745366 62.6270676"></polyline>
                <path d="M44.4199024,43.3560973 L44.4199024,43.2808541 C44.4199024,38.1972324 40.8374634,34.9335568 36.7141463,34.9335568 C32.6282927,34.9335568 28.6969756,38.3100973 28.6969756,43.2432324 L28.6969756,43.3184757 C28.6969756,48.2892324 32.6282927,51.6281514 36.7141463,51.6281514 C40.9896585,51.6281514 44.4199024,48.5549351 44.4199024,43.3560973 L44.4199024,43.3560973 Z M26.9244878,33.6073946 L28.8140488,33.6073946 L28.8140488,37.9315297 C30.5092683,35.3897189 33.0146341,33.1512324 36.9061463,33.1512324 C41.6452683,33.1512324 46.4616585,36.9086919 46.4616585,43.2056108 L46.4616585,43.2808541 C46.4616585,49.577773 41.6452683,53.4104757 36.9061463,53.4104757 C32.9748293,53.4104757 30.432,51.2119622 28.8140488,48.7830162 L28.8140488,59.0255027 L26.9244878,59.0255027 L26.9244878,33.6073946 Z" id="Fill-7" fill="#282727"></path>
                <path d="M44.4199024,43.3560973 L44.4199024,43.2808541 C44.4199024,38.1972324 40.8374634,34.9335568 36.7141463,34.9335568 C32.6282927,34.9335568 28.6969756,38.3100973 28.6969756,43.2432324 L28.6969756,43.3184757 C28.6969756,48.2892324 32.6282927,51.6281514 36.7141463,51.6281514 C40.9896585,51.6281514 44.4199024,48.5549351 44.4199024,43.3560973 Z M26.9244878,33.6073946 L28.8140488,33.6073946 L28.8140488,37.9315297 C30.5092683,35.3897189 33.0146341,33.1512324 36.9061463,33.1512324 C41.6452683,33.1512324 46.4616585,36.9086919 46.4616585,43.2056108 L46.4616585,43.2808541 C46.4616585,49.577773 41.6452683,53.4104757 36.9061463,53.4104757 C32.9748293,53.4104757 30.432,51.2119622 28.8140488,48.7830162 L28.8140488,59.0255027 L26.9244878,59.0255027 L26.9244878,33.6073946 Z" id="Stroke-9" stroke="#282727" stroke-width="0.216"></path>
                <path d="M53.3970732,47.9852027 L53.3970732,35.3137703 L50.5451707,35.3137703 L50.5451707,33.6066892 L53.3970732,33.6066892 L53.3970732,27.4226351 L55.2866341,27.4226351 L55.2866341,33.6066892 L62.1822439,33.6066892 L62.1822439,35.3137703 L55.2866341,35.3137703 L55.2866341,47.7970946 C55.2866341,50.5669865 56.9420488,51.5522027 59.2132683,51.5522027 C60.1779512,51.5522027 60.9880976,51.3640946 62.1049756,50.8703108 L62.1049756,52.6150135 C61.1028293,53.0688243 60.1404878,53.2969054 58.908878,53.2969054 C55.8626341,53.2969054 53.3970732,51.6650676 53.3970732,47.9852027" id="Fill-11" fill="#282727"></path>
                <path d="M53.3970732,47.9852027 L53.3970732,35.3137703 L50.5451707,35.3137703 L50.5451707,33.6066892 L53.3970732,33.6066892 L53.3970732,27.4226351 L55.2866341,27.4226351 L55.2866341,33.6066892 L62.1822439,33.6066892 L62.1822439,35.3137703 L55.2866341,35.3137703 L55.2866341,47.7970946 C55.2866341,50.5669865 56.9420488,51.5522027 59.2132683,51.5522027 C60.1779512,51.5522027 60.9880976,51.3640946 62.1049756,50.8703108 L62.1049756,52.6150135 C61.1028293,53.0688243 60.1404878,53.2969054 58.908878,53.2969054 C55.8626341,53.2969054 53.3970732,51.6650676 53.3970732,47.9852027 Z" id="Stroke-13" stroke="#282727" stroke-width="0.216"></path>
                <path d="M66.0739902,50.5272486 L67.1932098,49.0482486 C69.3473561,50.6777351 71.7379902,51.5900595 74.2410146,51.5900595 C76.9009171,51.5900595 78.982478,50.1486811 78.982478,47.9101946 L78.982478,47.8326 C78.982478,45.5588432 76.5169171,44.7217622 73.7797463,43.964627 C70.5813073,43.0523027 67.0363317,42.1047081 67.0363317,38.6529243 L67.0363317,38.5776811 C67.0363317,35.4668432 69.6962341,33.2283568 73.510478,33.2283568 C75.8613073,33.2283568 78.5188683,34.0630865 80.4833561,35.351627 L79.4835512,36.9082216 C77.6712585,35.7301946 75.5124293,34.9730595 73.4332098,34.9730595 C70.7358439,34.9730595 68.9633561,36.4144378 68.9633561,38.3496 L68.9633561,38.4271946 C68.9633561,40.5857351 71.6232585,41.3828432 74.4353561,42.1799514 C77.5939902,43.0523027 80.9095024,44.1927081 80.9095024,47.6068703 L80.9095024,47.6821135 C80.9095024,51.1362486 77.9030634,53.3347622 74.1262829,53.3347622 C71.276722,53.3347622 68.1555512,52.1967081 66.0739902,50.5272486" id="Fill-15" fill="#282727"></path>
                <path d="M66.0739902,50.5272486 L67.1932098,49.0482486 C69.3473561,50.6777351 71.7379902,51.5900595 74.2410146,51.5900595 C76.9009171,51.5900595 78.982478,50.1486811 78.982478,47.9101946 L78.982478,47.8326 C78.982478,45.5588432 76.5169171,44.7217622 73.7797463,43.964627 C70.5813073,43.0523027 67.0363317,42.1047081 67.0363317,38.6529243 L67.0363317,38.5776811 C67.0363317,35.4668432 69.6962341,33.2283568 73.510478,33.2283568 C75.8613073,33.2283568 78.5188683,34.0630865 80.4833561,35.351627 L79.4835512,36.9082216 C77.6712585,35.7301946 75.5124293,34.9730595 73.4332098,34.9730595 C70.7358439,34.9730595 68.9633561,36.4144378 68.9633561,38.3496 L68.9633561,38.4271946 C68.9633561,40.5857351 71.6232585,41.3828432 74.4353561,42.1799514 C77.5939902,43.0523027 80.9095024,44.1927081 80.9095024,47.6068703 L80.9095024,47.6821135 C80.9095024,51.1362486 77.9030634,53.3347622 74.1262829,53.3347622 C71.276722,53.3347622 68.1555512,52.1967081 66.0739902,50.5272486 Z" id="Stroke-17" stroke="#282727" stroke-width="0.216"></path>
            </g>
        </g>
    </g>
</svg>