<?xml version="1.0" encoding="utf-8"?>
<!-- Generator: Adobe Illustrator 21.1.0, SVG Export Plug-In . SVG Version: 6.00 Build 0)  -->
<svg version="1.1" xmlns="http://www.w3.org/2000/svg" xmlns:xlink="http://www.w3.org/1999/xlink" x="0px" y="0px"
	 viewBox="0 0 317 279.9" style="enable-background:new 0 0 317 279.9;" xml:space="preserve">
<style type="text/css">
	.st0{display:none;}
	.st1{display:inline;fill:#CFCFCE;}
	.st2{fill:none;stroke:#282828;stroke-width:5.9245;stroke-miterlimit:10;}
	.st3{fill:#282828;stroke:#282828;stroke-width:1.4811;stroke-miterlimit:10;}
	.st4{display:inline;}
	.st5{fill:none;stroke:#282828;stroke-width:5.9709;stroke-miterlimit:10;}
	.st6{fill:none;stroke:#282828;stroke-width:5.9709;stroke-linecap:round;stroke-linejoin:round;stroke-miterlimit:10;}
	.st7{fill:#282828;stroke:#282828;stroke-width:5.9709;stroke-linecap:round;stroke-linejoin:round;stroke-miterlimit:10;}
	.st8{fill:#282828;}
	.st9{fill:#AE8D4E;}
	
		.st10{fill-rule:evenodd;clip-rule:evenodd;fill:none;stroke:#282828;stroke-width:5.9709;stroke-linecap:round;stroke-linejoin:round;stroke-miterlimit:10;}
	
		.st11{fill-rule:evenodd;clip-rule:evenodd;fill:none;stroke:#AE8D4E;stroke-width:5.9709;stroke-linecap:round;stroke-linejoin:round;stroke-miterlimit:10;}
</style>
<g id="Layer_2" class="st0">
	<rect x="0.4" y="0.6" class="st1" width="316.9" height="279.3"/>
</g>
<g id="points_icon">
	<g>
		<g>
			<g>
				<line class="st2" x1="43.4" y1="165.6" x2="43.4" y2="114.3"/>
				<line class="st2" x1="69" y1="139.9" x2="17.8" y2="139.9"/>
			</g>
			<polyline class="st2" points="43.4,83.2 43.4,14 295.3,14 295.3,265.9 43.4,265.9 43.4,197.1 			"/>
		</g>
		<g>
			<path class="st3" d="M95.8,111.8h5.5v12.7c4.9-7.5,12.2-14.1,23.4-14.1c13.7,0,27.7,11.1,27.7,29.6v0.2c0,18.5-14,29.8-27.7,29.8
				c-11.4,0-18.8-6.5-23.4-13.6v30.1h-5.5V111.8z M146.4,140.5v-0.2c0-15-10.4-24.6-22.3-24.6c-11.8,0-23.2,9.9-23.2,24.4v0.2
				c0,14.6,11.4,24.4,23.2,24.4C136.5,164.8,146.4,155.8,146.4,140.5z"/>
			<path class="st3" d="M172.5,154.1v-37.3h-8.3v-5h8.3V93.6h5.5v18.2h20v5h-20v36.7c0,8.1,4.8,11.1,11.4,11.1c2.8,0,5.1-0.6,8.4-2
				v5.1c-2.9,1.3-5.7,2-9.3,2C179.6,169.7,172.5,164.9,172.5,154.1z"/>
			<path class="st3" d="M209.2,161.6l3.2-4.4c6.3,4.8,13.2,7.5,20.4,7.5c7.7,0,13.7-4.2,13.7-10.8v-0.2c0-6.7-7.1-9.2-15.1-11.4
				c-9.3-2.7-19.5-5.5-19.5-15.6v-0.2c0-9.2,7.7-15.7,18.8-15.7c6.8,0,14.5,2.5,20.2,6.2l-2.9,4.6c-5.2-3.5-11.5-5.7-17.5-5.7
				c-7.8,0-12.9,4.2-12.9,9.9v0.2c0,6.4,7.7,8.7,15.8,11.1c9.2,2.6,18.8,5.9,18.8,16v0.2c0,10.2-8.7,16.6-19.6,16.6
				C224.2,169.8,215.2,166.5,209.2,161.6z"/>
		</g>
	</g>
</g>
<g id="join_icon" class="st0">
	<g class="st4">
		<g>
			<path class="st5" d="M60.9,94.7V29.3c0-6.6,5.4-12,12-12h86.7c6.6,0,12,5.4,12,12v37.4"/>
			<path class="st5" d="M171.5,89.8v121.5c0,6.6-5.4,12-12,12H72.9c-6.6,0-12-5.4-12-12V198"/>
			<path class="st6" d="M180.9,124.8c0,0-4.5-11.9-3.2-24.1c0,0-7.5-9-8.6-22.4s9-22,13.4-22s8.6,5.2,13.1,17.9s9.7,11.6,14.6,26.1
				s9.7,34,11.9,54.5c2.2,20.5,14.9,19.8,14.9,19.8"/>
			<path class="st6" d="M133.6,223.4c0,0,30.2,15.3,48.5,11.9c11.3-2.1,13.4-4.1,31,3.7"/>
			<path class="st6" d="M62.7,93.9c0,0,17.6,2.3,14.6,14.2c-4.1,16-24.3,9.7-32.8,9.3c0,0,35.5,1.1,32.5,16.8
				c-2.6,13.4-29.5,11.9-37.7,11.2c0,0,37.9-1.3,36.2,16.2c-1,10.4-29.5,12.2-32.5,10.7c0,0,29-0.7,29,12.2
				c0,8.4-11.7,12.9-21.4,11.4s-18.8-13.6-7.6-24c0,0-19.4-10.1-3.7-26.5c0,0-15.7-19.4,4.5-28.4C43.7,117.1,32.1,90.6,62.7,93.9z"
				/>
			<line class="st5" x1="60.9" y1="48" x2="172.8" y2="48"/>
			<line class="st5" x1="69.8" y1="191" x2="172.8" y2="191"/>
			<line class="st6" x1="110.9" y1="33.8" x2="136.3" y2="33.8"/>
			<line class="st6" x1="98.2" y1="33.8" x2="100.1" y2="33.8"/>
			<circle class="st7" cx="116.2" cy="207" r="3.3"/>
			<path class="st6" d="M241.1,164.8c0,0-13.1,66.8-30.2,85.5l31.7,12.3c0,0,23.9-25.3,37.3-85.2L241.1,164.8z"/>
			<path class="st8" d="M234.2,247.2c0.5,0.2,1.1,0.3,1.6,0.3c2.1,0,4.1-1.4,4.7-3.4c0.9-2.6-0.5-5.5-3.1-6.4
				c-0.5-0.2-1.1-0.3-1.6-0.3c-2.1,0-4.1,1.4-4.7,3.4C230.2,243.5,231.6,246.3,234.2,247.2z"/>
		</g>
		<g>
			<path class="st9" d="M139.7,96.8v46.4H93.3V96.8H139.7 M145.7,90.8H87.4v58.3h58.3V90.8L145.7,90.8z"/>
		</g>
	</g>
</g>
<g id="earn_icon" class="st0">
	<g class="st4">
		<g>
			<path class="st10" d="M249.1,217.6c0,0-4.7-32.7-8.8-46c-2.6-8.4-14.8-38.5-20.4-49.6s-7.9-15.6-16.1-12.7
				c-7.2,2.5-5.1,9.7-5.1,9.7c-5.5-8.3-7.2-16.3-18.2-11.8c-9.2,3.8-4,17.3-4,17.3s-8.3-19.4-19.4-13.8c-11.1,5.5-5.5,19.4-5.5,19.4
				s-26.6-47.4-32.2-55.7c-5.5-8.3-11.4-11.4-16.9-8.6c-5.3,2.6-6.9,8.3-4.2,16.6s42.2,97.5,42.2,97.5c-36-22.1-49.8,2.8-47,5.5
				s19.9,6.2,30.9,17.6c9.6,10,24.2,24.5,38.3,29.4c16.1,5.6,25.3,13.1,28,15.9C190.8,248.4,230.2,240.1,249.1,217.6z"/>
			<g>
				<path class="st11" d="M83.9,122.5c-27.4-9.9-43-39.3-35.2-67.9C56.8,24.5,87.9,6.7,118,14.9c28.5,7.7,45.9,35.9,40.9,64.3"/>
				<path class="st11" d="M90.2,98.1c-13.8-6.3-21.5-21.8-17.4-37c4.6-16.8,21.9-26.8,38.7-22.2c14.7,4,24.2,17.8,23.2,32.4"/>
			</g>
		</g>
		<path class="st10" d="M179.3,251.9c0,0,54.3-10.3,75.2-40.6l11.9,19.5c0,0-30.4,38.1-73.8,36.1L179.3,251.9z"/>
	</g>
</g>
<g id="redeem_icon" class="st0">
	<g class="st4">
		<g>
			<g>
				<g>
					<g>
						<path class="st6" d="M202.1,77.3l0,0.2c-0.1,1.8-7.9,175-11.1,186.2l-0.1,0.2l-0.3,0L53.9,246.9l8.4-166.8
							C62.3,80.1,157.6,82,202.1,77.3z"/>
					</g>
					<g>
						<path class="st6" d="M201.3,77.6c0.1,0,20.1,3,24.7,3c4.8,0,18.8-3.2,18.9-3.3l0.4-0.1l0,0.3l13.8,167.4l-0.6-0.3"/>
					</g>
					<g>
						<path class="st6" d="M221.6,80.2l-4.5,144.7l41.5,19.9l0.4,1.4c-0.2,0-25,5.7-32.6,7.6l-35.5,9.9l24.4-39.2"/>
					</g>
				</g>
				<g>
					<path class="st6" d="M136.2,78.6c-0.3-1.5-0.5-3-0.8-4.5c-1.3-7.5-2.6-15.3-3.4-23c-0.9-8.5,1.1-18.3,8.4-23.1
						c5-3.6,11.7-3.1,12-3.1c19.4,0,27.1,15.7,29,20.6c4.4,11.2,4.5,22.4,3,32.1"/>
				</g>
				<g>
					<path class="st6" d="M100.9,93.1c-1.6-3.9-3.2-8.4-4.4-13.3c0-0.1,0-0.1,0-0.2c0-0.1,0-0.1-0.1-0.2c-2.9-11.6-3.8-25.5,1-39.5
						c1.9-5.6,10-23.9,32.5-23.9c0.8,0,1.6,0,2.4,0.1c27.7,2.4,19.2,46.4,18.1,54.9c-0.3,2.4-0.6,4.9-0.9,7.3c0,0.1,0,0.1,0,0.2
						c0,0.1,0,0.1,0,0.2c-0.6,4.9-1.1,9.9-1.5,14.8"/>
				</g>
			</g>
		</g>
		<path class="st9" d="M124.6,163.9V139c4,0.9,7.5,3,11.1,6.8c0.2,0.2,0.6,0.4,0.9,0.3c0.3,0,0.6-0.2,0.8-0.5l2.7-3.8
			c0.3-0.5,0.3-1.1-0.1-1.5c-5.1-4.9-9.6-7.3-15.2-8.1v-4.8c0-0.6-0.5-1.1-1.1-1.1h-3.9c-0.6,0-1.1,0.5-1.1,1.1v4.5
			c-9.9,0.8-16.9,8.4-16.9,18.5c0,9.9,5.1,15.7,17.1,19V195c-5.4-0.9-9.8-3.7-14.6-9.2c-0.2-0.3-0.6-0.4-0.9-0.4
			c-0.3,0-0.7,0.2-0.9,0.5l-2.7,3.8c-0.3,0.4-0.3,1,0.1,1.4c5.8,6.2,11.8,9.6,18.8,10.5v8.6c0,0.6,0.5,1.1,1.1,1.1h3.9
			c0.6,0,1.1-0.5,1.1-1.1v-8.4c10.2-0.9,17.2-8.5,17.2-18.9C142,173,136.7,167.2,124.6,163.9z M124.6,171.2
			c9.2,2.8,11.1,6.6,11.1,12c0,6.5-4.5,11.3-11.1,11.9V171.2z M108.1,150.2c0-6.2,4.4-10.9,10.7-11.5v23.6
			C109.9,159.4,108.1,155.8,108.1,150.2z"/>
	</g>
</g>
</svg>
