<svg id="redeem_icon" data-name="redeem icon" xmlns="http://www.w3.org/2000/svg" viewBox="0 0 317.0365 279.8802"><defs><style>.cls-1{fill:none;stroke:#282828;stroke-linecap:round;stroke-linejoin:round;stroke-width:5.9709px;}.cls-2{fill:#ae8d4e;}</style></defs><title>redeem-icon</title><path class="cls-1" d="M202.0617,77.3049l-.0067.2179c-.0784,1.7507-7.9063,175.0325-11.15,186.1676l-.0593.2066-.33-.0421L53.929,246.9485l8.3748-166.84S157.6251,81.9966,202.0617,77.3049Z"/><path class="cls-1" d="M201.3126,77.6337c.1387.0287,20.1079,2.9593,24.6591,2.9593,4.7816,0,18.7507-3.2346,18.8894-3.2671l.4225-.0985.02.2791L259.1075,244.87l-.568-.264"/><path class="cls-1" d="M221.6133,80.1742l-4.52,144.6558,41.5291,19.92.3783,1.397c-.2179.0458-24.9846,5.6592-32.5533,7.6249L190.9055,263.69l24.3614-39.2346"/><path class="cls-1" d="M136.1572,78.5994c-.25-1.5164-.5077-3.02-.7592-4.5158-1.2879-7.5286-2.616-15.3124-3.3886-22.9845-.8585-8.4741,1.1235-18.2583,8.4016-23.0867,5.0054-3.5973,11.65-3.0578,11.9746-3.0578,19.4181,0,27.0929,15.7389,28.9746,20.5635A60.766,60.766,0,0,1,184.34,77.6337"/><path class="cls-1" d="M100.9208,93.0934A97.4954,97.4954,0,0,1,96.5284,79.808c-.02-.07-.0325-.1358-.046-.2056-.02-.07-.04-.1357-.0535-.2055-2.8531-11.6056-3.8035-25.5155,1.024-39.5085,1.9353-5.6095,9.9868-23.9052,32.4693-23.9052.7927,0,1.6071,0,2.4181.07,27.6917,2.3848,19.1733,46.3839,18.0967,54.9394q-.456,3.6372-.9045,7.34c-.0067.07-.02.1357-.0268.2055l-.02.2094c-.587,4.9107-1.1225,9.8835-1.4925,14.8019"/><path class="cls-2" d="M124.6444,163.9327V139.0284c4.0039.8574,7.4824,2.9854,11.125,6.77a1.1323,1.1323,0,0,0,.8906.34,1.12,1.12,0,0,0,.83-.47l2.6592-3.7617a1.12,1.12,0,0,0-.14-1.4551c-5.1-4.8847-9.5712-7.2793-15.205-8.0888v-4.8008a1.119,1.119,0,0,0-1.1192-1.1191h-3.8672a1.119,1.119,0,0,0-1.1191,1.1191v4.5352c-9.8682.7978-16.918,8.4277-16.918,18.5205,0,9.9355,5.12,15.65,17.08,18.9912v25.3447c-5.4072-.93-9.8486-3.7354-14.6367-9.1895a1.1189,1.1189,0,0,0-1.7559.0928L99.81,189.62a1.118,1.118,0,0,0,.0987,1.4121c5.8291,6.2041,11.8242,9.5752,18.79,10.5459v8.56a1.119,1.119,0,0,0,1.1191,1.1191h3.8672a1.119,1.119,0,0,0,1.1192-1.1191v-8.4024c10.207-.874,17.2422-8.5068,17.2422-18.8984C142.0468,173.02,136.6708,167.1622,124.6444,163.9327Zm0,7.2715c9.2012,2.7988,11.0547,6.5674,11.0547,12.02,0,6.52-4.4893,11.2881-11.0547,11.9307Zm-16.5166-20.9727c0-6.1894,4.4482-10.8867,10.7334-11.541v23.627C109.8837,159.4015,108.1278,155.7657,108.1278,150.2315Z"/></svg>