<?xml version="1.0" encoding="UTF-8"?>
<svg width="89px" height="89px" viewBox="0 0 89 89" version="1.1" xmlns="http://www.w3.org/2000/svg" xmlns:xlink="http://www.w3.org/1999/xlink">
    <title>Group referral icon</title>
    <g id="Page-1" stroke="none" stroke-width="1" fill="none" fill-rule="evenodd">
        <g id="Group-40">
            <circle id="Oval-Copy-16" fill="#FFFFFF" cx="44.5" cy="44.5" r="44.5"></circle>
            <g id="Referal-Icon" transform="translate(22.000000, 20.000000)">
                <path d="M21,50 L21,45.8650419 C21,41.9970157 14.2131841,40 10.5,40 C6.78681594,40 0,41.9970157 0,45.8650419 L0,50" id="Stroke-1" stroke="#282727" stroke-width="1.3"></path>
                <path d="M17,33 C17,29.6865164 14.3136054,27 10.9995871,27 C7.6863946,27 5,29.6865164 5,33 C5,36.3143343 7.6863946,39 10.9995871,39 C14.3136054,39 17,36.3143343 17,33 Z" id="Stroke-3" stroke="#282727" stroke-width="1.3"></path>
                <path d="M45,50 L45,45.8650419 C45,41.9970157 38.2131841,40 34.500822,40 C30.7868159,40 24,41.9970157 24,45.8650419 L24,50" id="Stroke-5" stroke="#282727" stroke-width="1.3"></path>
                <path d="M40,33 C40,29.6865164 37.3136054,27 33.9995872,27 C30.6855689,27 27.9991744,29.6865164 28,33 C28,36.3143343 30.6863948,39 33.9995872,39 C37.3136054,39 40,36.3143343 40,33 Z" id="Stroke-7" stroke="#282727" stroke-width="1.3"></path>
                <path d="M25.4415713,17.2486258 L30.3255428,17.2486258 L34.4277142,22.614865 C34.9906435,23.3515917 36.1853139,22.9606058 36.1853139,22.0403376 L36.1853139,17.2486258 L40.0926569,17.2486258 C42.2498618,17.2486258 44,15.5327269 44,13.4164515 L44,3.83302796 C44,1.71675261 42.2498618,0 40.0926569,0 L22.5108567,0 L5.90651402,0 C3.74848006,0 2,1.71675261 2,3.83302796 L2,13.4164515 C2,15.5327269 3.74848006,17.2486258 5.90651402,17.2486258 L8.83722858,17.2486258 L8.83722858,22.0403376 C8.83722858,22.9606058 10.0310699,23.3515917 10.5948283,22.614865 L14.6969996,17.2486258 L19.5809712,17.2486258 L25.4415713,17.2486258 Z" id="Stroke-9" stroke="#AE8D4F" stroke-width="1.328" stroke-linecap="round" stroke-linejoin="round"></path>
            </g>
        </g>
    </g>
</svg>