<?xml version="1.0" encoding="UTF-8"?>
<svg width="89px" height="89px" viewBox="0 0 89 89" version="1.1" xmlns="http://www.w3.org/2000/svg" xmlns:xlink="http://www.w3.org/1999/xlink">
    <title>Upload a Photo Icon</title>
    <defs>
        <polygon id="path-1" points="0 54.9853 56.386 54.9853 56.386 0.0003 0 0.0003"></polygon>
    </defs>
    <g id="Page-1" stroke="none" stroke-width="1" fill="none" fill-rule="evenodd">
        <g id="Upload-a-Photo-Icon">
            <circle id="Oval-Copy-3" fill="#FFFFFF" cx="44.5" cy="44.5" r="44.5"></circle>
            <g id="Group-29" transform="translate(16.000000, 17.000000)">
                <path d="M6.8612,17.5905 L6.8612,3.2795 C6.8612,1.8385 8.0642,0.6595 9.5342,0.6595 L28.8732,0.6595 C30.3422,0.6595 31.5462,1.8385 31.5462,3.2795 L31.5462,11.4685" id="Stroke-1" stroke="#282727" stroke-width="1.319"></path>
                <path d="M31.5457,16.529 L31.5457,43.107 C31.5457,44.548 30.3427,45.727 28.8727,45.727 L9.5337,45.727 C8.0647,45.727 6.8607,44.548 6.8607,43.107 L6.8607,40.203" id="Stroke-3" stroke="#282727" stroke-width="1.319"></path>
                <path d="M33.6346,24.1755 C33.6346,24.1755 32.6356,21.5635 32.9136,18.8975 C32.9136,18.8975 31.2476,16.9375 30.9986,13.9985 C30.7486,11.0605 32.9966,9.1825 33.9956,9.1825 C34.9946,9.1825 35.9106,10.3245 36.9096,13.1005 C37.9086,15.8765 39.0746,15.6315 40.1566,18.8155 C41.2386,21.9985 42.3226,26.2435 42.8216,30.7335 C43.3216,35.2235 46.1526,35.0605 46.1526,35.0605" id="Stroke-5" stroke="#282727" stroke-width="1.319" stroke-linecap="round" stroke-linejoin="round"></path>
                <path d="M23.0887,45.7546 C23.0887,45.7546 29.8327,49.1016 33.9127,48.3666 C36.4247,47.9136 36.9097,47.4686 40.8227,49.1836" id="Stroke-7" stroke="#282727" stroke-width="1.319" stroke-linecap="round" stroke-linejoin="round"></path>
                <path d="M7.2694,17.4274 C7.2694,17.4274 11.1924,17.9394 10.5164,20.5294 C9.6004,24.0394 5.1044,22.6524 3.1894,22.5704 C3.1894,22.5704 11.1164,22.8014 10.4334,26.2434 C9.8504,29.1824 3.8554,28.8564 2.0244,28.6934 C2.0244,28.6934 10.4714,28.4094 10.1004,32.2304 C9.8774,34.5164 3.5224,34.8974 2.8564,34.5704 C2.8564,34.5704 9.3234,34.4074 9.3234,37.2374 C9.3234,39.0784 6.7134,40.0674 4.5494,39.7404 C2.3844,39.4134 0.3584,36.7744 2.8564,34.4894 C2.8564,34.4894 -1.4726,32.2844 2.0244,28.6934 C2.0244,28.6934 -1.4726,24.4484 3.0234,22.4894 C3.0234,22.4894 0.4424,16.6924 7.2694,17.4274 Z" id="Stroke-9" stroke="#282727" stroke-width="1.319" stroke-linecap="round" stroke-linejoin="round"></path>
                <line x1="6.8533" y1="7.3864" x2="31.8313" y2="7.3864" id="Stroke-11" stroke="#282727" stroke-width="1.319"></line>
                <line x1="8.8514" y1="38.652" x2="31.8304" y2="38.652" id="Stroke-13" stroke="#282727" stroke-width="1.319"></line>
                <line x1="18.0096" y1="4.2839" x2="23.6716" y2="4.2839" id="Stroke-15" stroke="#282727" stroke-width="1.319" stroke-linecap="round" stroke-linejoin="round"></line>
                <line x1="15.1785" y1="4.2839" x2="15.5955" y2="4.2839" id="Stroke-17" stroke="#282727" stroke-width="1.319" stroke-linecap="round" stroke-linejoin="round"></line>
                <path d="M18.4666,42.1725 C18.4666,42.5705 18.7976,42.8955 19.2036,42.8955 C19.6106,42.8955 19.9416,42.5705 19.9416,42.1725 C19.9416,41.7745 19.6106,41.4495 19.2036,41.4495 C18.7976,41.4495 18.4666,41.7745 18.4666,42.1725" id="Fill-19" fill="#282727"></path>
                <path d="M18.4666,42.1725 C18.4666,42.5705 18.7976,42.8955 19.2036,42.8955 C19.6106,42.8955 19.9416,42.5705 19.9416,42.1725 C19.9416,41.7745 19.6106,41.4495 19.2036,41.4495 C18.7976,41.4495 18.4666,41.7745 18.4666,42.1725 Z" id="Stroke-21" stroke="#282727" stroke-width="1.319" stroke-linecap="round" stroke-linejoin="round"></path>
                <path d="M47.0682,32.9382 C47.0682,32.9382 44.1532,47.5502 40.3242,51.6312 L47.4012,54.3262 C47.4012,54.3262 52.7292,48.8012 55.7262,35.6862 L47.0682,32.9382 Z" id="Stroke-23" stroke="#282727" stroke-width="1.319" stroke-linecap="round" stroke-linejoin="round"></path>
                <path d="M45.535,50.9528 C45.651,50.9918 45.772,51.0118 45.894,51.0118 C46.374,51.0118 46.799,50.7128 46.953,50.2668 C47.151,49.6948 46.837,49.0708 46.253,48.8778 C46.137,48.8388 46.015,48.8188 45.894,48.8188 C45.415,48.8188 44.989,49.1178 44.836,49.5628 C44.638,50.1358 44.951,50.7598 45.535,50.9528" id="Fill-25" fill="#282727"></path>
                <mask id="mask-2" fill="white">
                    <use xlink:href="#path-1"></use>
                </mask>
                <g id="Clip-28"></g>
                <path d="M12.764,29.5093 L25.781,29.5093 L25.781,16.7463 L12.764,16.7463 L12.764,29.5093 Z M14.084,28.1903 L24.462,28.1903 L24.462,18.0663 L14.084,18.0663 L14.084,28.1903 Z" id="Fill-27" fill="#AD8C4D" mask="url(#mask-2)"></path>
            </g>
        </g>
    </g>
</svg>