<?xml version="1.0" encoding="UTF-8"?>
<svg width="89px" height="89px" viewBox="0 0 89 89" version="1.1" xmlns="http://www.w3.org/2000/svg" xmlns:xlink="http://www.w3.org/1999/xlink">
    <title>Write A Review Icon</title>
    <g id="Page-1" stroke="none" stroke-width="1" fill="none" fill-rule="evenodd">
        <g id="Write-A-Review-Icon">
            <circle id="Oval-Copy-3" fill="#FFFFFF" cx="44.5" cy="44.5" r="44.5"></circle>
            <g id="Group-11" transform="translate(21.000000, 19.000000)">
                <path d="M18.8041957,0.514244011 L23.7825201,11.3808543 L35.1942882,12.3931457 C35.9428677,12.4606318 36.2710492,13.3662951 35.7367371,13.8940363 L27.3559021,22.1664813 L29.4551792,32.9507586 C29.5948598,33.6674609 28.8462803,34.2316446 28.1912733,33.905012 L18.0000152,28.8111618 L7.80875709,33.86587 C7.15239396,34.191153 6.40652677,33.6256195 6.54620735,32.910267 L8.64548447,22.1759294 L0.261937214,13.8926866 C-0.2710188,13.3662951 0.058518888,12.4606318 0.807098326,12.3931457 L12.2188664,11.3808543 L17.1958348,0.514244011 C17.5104551,-0.17141467 18.4909314,-0.17141467 18.8041957,0.514244011 Z" id="Stroke-1" stroke="#AE8D4F" stroke-linecap="round" stroke-linejoin="round"></path>
                <path d="M45,41.3033739 C45,41.3033739 44.0834202,35.4121426 43.3274781,33.0183621 C42.8496147,31.5118726 40.5871879,26.0901434 39.5720656,24.100543 C38.5555935,22.1123035 38.130376,21.3025824 36.6562889,21.8455718 C35.3765869,22.3191566 35.7721066,23.6051842 35.7721066,23.6051842 C34.7623839,22.117747 34.4384087,20.6752187 32.4905079,21.514879 C30.8463338,22.2238953 31.8142096,24.6544195 31.8142096,24.6544195 C31.8142096,24.6544195 30.2861267,21.1719383 28.3139277,22.1953169 C26.3403788,23.2200564 27.3636004,25.7090982 27.3636004,25.7090982 C27.3636004,25.7090982 22.485074,17.2022636 21.4753513,15.7134655 C20.4656286,14.2260283 19.4046099,13.6748736 18.4191853,14.1865629 C17.4823571,14.6737564 17.196179,15.7025785 17.7091397,17.1968201 C18.2234503,18.6924226 25.4858942,34.7344265 25.4858942,34.7344265 C18.9874918,30.8123824 16.5617275,35.342738 17.0638891,35.8367359 C17.5660506,36.3320947 20.6424651,36.9159104 22.6349125,38.9517806 C24.3762792,40.733167 27.0328758,43.3365224 29.5666317,44.1884306 C32.4702594,45.1655394 34.1225329,46.5046412 34.6246944,47 C34.6246944,47 41.6644054,45.3996101 45,41.3033739" id="Fill-3" fill="#FFFFFF"></path>
                <path d="M45,41.3033739 C45,41.3033739 44.0834202,35.4121426 43.3274781,33.0183621 C42.8496147,31.5118726 40.5871879,26.0901434 39.5720656,24.100543 C38.5555935,22.1123035 38.130376,21.3025824 36.6562889,21.8455718 C35.3765869,22.3191566 35.7721066,23.6051842 35.7721066,23.6051842 C34.7623839,22.117747 34.4384087,20.6752187 32.4905079,21.514879 C30.8463338,22.2238953 31.8142096,24.6544195 31.8142096,24.6544195 C31.8142096,24.6544195 30.2861267,21.1719383 28.3139277,22.1953169 C26.3403788,23.2200564 27.3636004,25.7090982 27.3636004,25.7090982 C27.3636004,25.7090982 22.485074,17.2022636 21.4753513,15.7134655 C20.4656286,14.2260283 19.4046099,13.6748736 18.4191853,14.1865629 C17.4823571,14.6737564 17.196179,15.7025785 17.7091397,17.1968201 C18.2234503,18.6924226 25.4858942,34.7344265 25.4858942,34.7344265 C18.9874918,30.8123824 16.5617275,35.342738 17.0638891,35.8367359 C17.5660506,36.3320947 20.6424651,36.9159104 22.6349125,38.9517806 C24.3762792,40.733167 27.0328758,43.3365224 29.5666317,44.1884306 C32.4702594,45.1655394 34.1225329,46.5046412 34.6246944,47 C34.6246944,47 41.6644054,45.3996101 45,41.3033739 Z" id="Stroke-5" stroke="#282828" stroke-width="0.893"></path>
                <path d="M33,47.3649953 C33,47.3649953 42.3545029,45.4299312 45.9086413,40 L48,43.4321012 C48,43.4321012 42.8178032,50.2455564 35.3217074,49.9931568 L33,47.3649953 Z" id="Fill-7" fill="#FFFFFF"></path>
                <path d="M33,47.3649953 C33,47.3649953 42.3545029,45.4299312 45.9086413,40 L48,43.4321012 C48,43.4321012 42.8178032,50.2455564 35.3217074,49.9931568 L33,47.3649953 Z" id="Stroke-9" stroke="#282828" stroke-width="0.893"></path>
            </g>
        </g>
    </g>
</svg>