<?xml version="1.0" encoding="UTF-8"?>
<svg width="89px" height="89px" viewBox="0 0 89 89" version="1.1" xmlns="http://www.w3.org/2000/svg" xmlns:xlink="http://www.w3.org/1999/xlink">
    <title>Social Share (Reviews) Icon</title>
    <g id="Page-1" stroke="none" stroke-width="1" fill="none" fill-rule="evenodd">
        <g id="Social-Share-(Reviews)-Icon">
            <circle id="Oval-Copy-5" fill="#FFFFFF" cx="44.5" cy="44.5" r="44.5"></circle>
            <g id="Group-5" transform="translate(22.000000, 20.000000)" stroke-linecap="round" stroke-linejoin="round">
                <path d="M34,29.7456482 C34,29.7456482 30.1092515,29.4936954 27.4948729,30.9402009 C24.8804943,32.3852243 16.8960409,31.9895102 15.6963433,31.8190716 C13.5164417,31.5107999 12.3453083,29.9649953 13.6562561,28.109437 C12.5076734,27.0719843 11.8040914,26.3250183 13.2849211,24.213061 C13.2849211,24.213061 11.3049691,22.7028262 12.7346839,20.6294028 C11.3741246,19.8320463 9.07244913,16.2795117 14.0396181,16.0705391 L19.2037298,15.7874627 C19.2037298,15.7874627 17.3545719,9.62647558 19.1405879,7.55157012 C20.9266038,5.47666466 21.7715036,9.81618122 22.369849,11.3234518 C22.966691,12.8336866 24.1784157,17.9246154 33.9353546,17.7363918" id="Stroke-1" stroke="#AE8D4F" stroke-width="1.2"></path>
                <path d="M27.2216821,43.058606 L40.9134662,43.058606 C43.160914,43.058606 45,41.1935663 45,38.9129229 L45,4.1442041 C45,1.86356073 43.160914,0 40.9134662,0 L4.08799222,0 C1.84054448,0 0,1.86356073 0,4.1442041 L0,38.9129229 C0,41.1935663 1.84054448,43.058606 4.08799222,43.058606 L18.2202236,43.058606 L22.6553233,48 L27.2216821,43.058606 Z" id="Stroke-3" stroke="#282828"></path>
            </g>
        </g>
    </g>
</svg>